HIERARCHY
ROOT Hips
{
	OFFSET	0.00	0.00	0.00
	CHANNELS 6 Xposition Yposition Zposition Zrotation Xrotation Yrotation
	JOINT Chest
	{
		OFFSET	0.000000	6.275751	0.000000
		CHANNELS 3 Zrotation Xrotation Yrotation
		JOINT Neck
		{
			OFFSET	0.000000	14.296947	0.000000
			CHANNELS 3 Zrotation Xrotation Yrotation
			JOINT Head
			{
				OFFSET	0.000000	2.637461	0.000000
				CHANNELS 3 Zrotation Xrotation Yrotation
				End Site
				{
					OFFSET	0.000000	4.499004	0.000000
				}
			}
		}
		JOINT LeftCollar
		{
			OFFSET	1.120000	11.362855	1.870000
			CHANNELS 3 Zrotation Xrotation Yrotation
			JOINT LeftUpArm
			{
				OFFSET	4.565688	2.019026	-1.821179
				CHANNELS 3 Zrotation Xrotation Yrotation
				JOINT LeftLowArm
				{
					OFFSET	0.219729	-10.348825	-0.061708
					CHANNELS 3 Zrotation Xrotation Yrotation
					JOINT LeftHand
					{
						OFFSET	0.087892	-10.352228	2.178217
						CHANNELS 3 Zrotation Xrotation Yrotation
						End Site
						{
							OFFSET	0.131837	-6.692379	1.711456
						}
					}
				}
			}
		}
		JOINT RightCollar
		{
			OFFSET	-1.120000	11.362855	1.870000
			CHANNELS 3 Zrotation Xrotation Yrotation
			JOINT RightUpArm
			{
				OFFSET	-4.708080	2.034554	-1.821179
				CHANNELS 3 Zrotation Xrotation Yrotation
				JOINT RightLowArm
				{
					OFFSET	-0.263676	-10.428555	-0.061708
					CHANNELS 3 Zrotation Xrotation Yrotation
					JOINT RightHand
					{
						OFFSET	0.000000	-10.255345	2.178217
						CHANNELS 3 Zrotation Xrotation Yrotation
						End Site
						{
							OFFSET	-0.140882	-6.671274	1.711456
						}
					}
				}
			}
		}
	}
	JOINT LeftUpLeg
	{
		OFFSET	3.910000	0.000000	0.000000
		CHANNELS 3 Zrotation Xrotation Yrotation
		JOINT LeftLowLeg
		{
			OFFSET	-0.441177	-17.569450	1.695613
			CHANNELS 3 Zrotation Xrotation Yrotation
			JOINT LeftFoot
			{
				OFFSET	-0.043946	-17.197315	-1.478076
				CHANNELS 3 Zrotation Xrotation Yrotation
				End Site
				{
					OFFSET	0.000000	-3.933155	5.233925
				}
			}
		}
	}
	JOINT RightUpLeg
	{
		OFFSET	-3.910000	0.000000	0.000000
		CHANNELS 3 Zrotation Xrotation Yrotation
		JOINT RightLowLeg
		{
			OFFSET	0.437741	-17.622387	1.695613
			CHANNELS 3 Zrotation Xrotation Yrotation
			JOINT RightFoot
			{
				OFFSET	0.000000	-17.140001	-1.478076
				CHANNELS 3 Zrotation Xrotation Yrotation
				End Site
				{
					OFFSET	0.000000	-4.038528	5.233925
				}
			}
		}
	}
}
MOTION
Frames: 17
Frame Time: 0.04166667
13.577452	3.999524	7.600721	-16.675274	-5.282896	11.323369	24.981621	-7.800640	8.605134	9.235145	28.502258	33.863438	13.132837	16.308107	0.006371	-8.177375	5.492342	-9.501714	47.161171	39.510883	-83.317703	2.249610	-35.205288	-4.555655	10.402100	2.662593	2.199152	2.423917	7.542563	-21.273968	-175.686356	-51.631332	-122.128151	-2.074116	-62.491524	-0.690971	13.146399	2.719027	2.796232	5.943338	-28.610161	-43.577297	-2.049375	58.035858	-6.541934	-35.382008	52.039146	31.146132	13.296693	2.754804	7.885045	3.851600	-2.713894	25.713308	-0.585957	-0.322729	5.059813	
13.641776	3.995447	7.617937	-16.786013	-5.237657	10.379430	24.894337	-7.970397	8.823475	9.778899	28.668644	33.160625	12.937034	16.337238	-0.000699	-7.852038	5.221722	-9.976394	47.507622	38.814724	-83.473640	2.777293	-34.450741	-6.391662	10.961982	2.684714	2.316169	2.279986	6.965564	-20.722990	-174.128067	-52.610424	-121.253632	-2.157860	-62.890415	-0.609101	11.920672	2.662130	2.539255	6.571614	-28.000839	-41.913204	-1.532127	58.091660	-3.802020	-31.050171	52.919888	27.246847	13.384706	2.111004	8.733567	3.859074	-1.088669	24.928394	-0.813732	-1.072598	5.072679	
13.690473	4.006164	7.630381	-16.680607	-4.932555	9.565751	24.654499	-8.358714	8.518511	9.373055	28.808931	33.663616	13.102923	16.184481	0.036345	-7.604700	4.511304	-10.078506	48.321510	38.932503	-84.228401	2.967950	-33.713615	-7.127252	11.214663	2.694983	2.368928	1.756319	6.902038	-20.232418	-173.210159	-53.203522	-120.858727	-2.325047	-63.085266	-0.414356	12.341943	2.681075	2.627705	7.308984	-27.733774	-39.771309	-1.153057	58.359478	-1.859103	-26.087973	52.326721	22.500883	13.058794	1.694640	11.550405	3.634758	-0.545941	21.831635	0.118512	-1.915709	4.990377	
13.753242	4.024742	7.586433	-16.551523	-4.471380	9.109743	24.706059	-8.426354	7.835223	8.352891	28.352827	34.851681	12.337437	15.942206	0.089384	-8.181300	4.579134	-9.755318	49.503735	38.164642	-85.840858	2.715045	-33.455933	-6.291907	10.911548	2.682673	2.305648	2.080705	8.113953	-20.825666	-174.699631	-51.731941	-121.946022	-2.086679	-63.434296	-0.730529	13.235401	2.723458	2.814792	8.005868	-27.786758	-37.948387	-0.957960	58.703270	-0.920175	-22.688904	50.495140	19.050198	12.286902	2.434465	13.967103	3.375903	-2.946790	19.952324	1.452599	-1.784897	4.886512	
13.867557	4.089458	7.495962	-15.997119	-4.176446	9.070850	24.610716	-7.651280	6.748607	7.041180	26.702999	35.786465	9.180565	15.220365	0.187611	-9.436986	5.333591	-9.426018	50.586193	36.528267	-87.719810	2.620868	-33.657429	-5.948868	10.393154	2.662300	2.197283	3.594510	10.308864	-22.699184	-178.260345	-47.958168	-124.843842	-2.008585	-63.664986	-0.836887	13.042252	2.714099	2.774414	8.369349	-27.513172	-36.610008	-1.038662	58.318485	-1.230119	-22.515301	48.482716	18.471148	10.620575	5.165051	14.998081	3.067110	-9.318016	19.071659	4.185227	0.545573	4.503001	
14.004158	4.149472	7.355046	-15.409006	-3.544832	9.538167	24.532085	-6.500319	5.048267	4.989773	23.010859	36.907799	5.767286	12.835661	0.368029	-11.155725	6.921815	-8.474839	51.493568	33.782246	-87.854332	3.260855	-34.553886	-8.007992	10.916489	2.682865	2.306671	7.097601	13.492805	-26.182032	176.529083	-41.240822	-129.547852	-1.822459	-63.234936	-1.042735	13.452192	2.734110	2.860129	8.719856	-27.737616	-35.526730	-1.257692	57.774250	-2.238186	-23.681322	45.808514	18.856043	9.573594	4.179056	15.051828	3.087212	-8.929173	19.179962	5.048206	-0.088006	4.456089	
14.133857	4.202999	7.177244	-14.830548	-1.980026	10.436937	24.123575	-5.874145	3.287213	2.924722	17.544207	37.942581	2.230655	8.677399	0.309884	-12.524591	8.963411	-7.213694	52.774605	30.084864	-87.154373	3.729053	-37.182106	-9.125025	11.718902	2.716353	2.474016	11.834476	16.155106	-31.019543	170.922882	-33.991268	-134.614944	-1.274019	-62.099342	-1.724474	13.350471	2.729054	2.838892	9.057068	-29.039536	-34.265041	-1.541133	57.161160	-3.610592	-23.624245	42.851585	18.060614	8.816906	2.417720	13.882811	3.139742	-8.908454	19.853868	4.191620	0.873607	4.478230	
14.260645	4.248662	6.973821	-14.317660	0.502927	11.495071	23.522934	-5.941304	1.858837	1.601355	11.458125	39.321045	-4.196470	3.863255	-0.946109	-13.394143	11.123937	-6.120088	54.083851	25.590260	-86.278137	3.788085	-40.776394	-8.638394	12.213547	2.738167	2.576964	15.768240	17.612057	-34.410820	167.995956	-27.491789	-137.777481	-0.438492	-60.171268	-2.970667	14.131342	2.768975	3.001762	9.411794	-31.103872	-32.961464	-1.816070	56.744038	-4.990639	-23.224932	38.246246	16.484728	7.880764	-0.256702	13.686213	3.107524	-8.918661	19.473593	2.683938	1.821305	4.621699	
14.392508	4.296644	6.740022	-13.830461	3.381599	12.524527	22.476860	-5.874015	1.430168	1.355923	4.894991	41.868423	-11.704188	-0.497736	-3.583791	-13.387940	13.710737	-5.340249	55.407948	19.398014	-85.076004	4.648854	-44.881416	-10.162682	11.315508	2.699272	2.389950	18.773020	17.265690	-36.891106	166.136505	-23.416542	-141.117172	0.221597	-58.639694	-4.140039	15.344329	2.835095	3.253754	10.021782	-33.009510	-31.132814	-1.933973	56.351746	-5.480649	-21.401751	31.516352	13.210238	6.365568	-3.420537	15.403520	2.917190	-8.981339	17.158754	2.748893	2.045176	4.601889	
14.539972	4.360601	6.471978	-13.052319	6.352330	13.616265	22.140118	-5.945193	-1.026377	-0.301879	-1.007010	47.581039	-19.043514	-4.397659	-7.303011	-13.397577	12.979366	-4.046816	55.318825	15.233369	-83.899994	4.252822	-47.375870	-8.502611	11.730127	2.716847	2.476370	21.459764	18.677877	-39.557442	163.452942	-18.574919	-146.828476	0.691163	-58.508629	-4.917700	15.307443	2.833072	3.246084	10.399110	-34.004498	-29.320637	-1.970816	54.940475	-5.385303	-18.533739	23.868425	9.240096	4.582803	-7.407990	16.944479	2.746230	-7.368063	14.543546	3.019768	1.267490	4.603548	
14.687179	4.404168	6.167319	-11.760829	9.094644	14.719264	20.638222	-5.355359	-3.031880	-0.766839	-6.516122	53.704147	-26.247461	-7.193187	-11.760407	-14.532058	16.075951	-2.056687	57.885384	7.236456	-80.221931	4.623615	-50.667076	-8.552472	9.399776	2.625997	1.989179	25.377895	19.302839	-41.956680	159.944489	-15.124603	-152.875656	1.563955	-59.519363	-6.103321	14.805644	2.805072	3.142007	10.251793	-33.784061	-27.510571	-1.916009	52.312447	-4.609771	-15.370595	15.548161	5.521933	2.805576	-12.761124	19.063162	2.590862	-2.185345	11.124747	2.757127	-1.118431	4.752851	
14.825291	4.362984	5.818183	-10.343546	11.797771	15.702610	19.001158	-5.100042	-5.261823	-0.981197	-10.362553	60.973022	-33.612881	-8.735519	-16.809544	-14.835080	17.485811	-0.653249	60.418282	0.460549	-76.736877	5.446684	-53.781593	-9.372891	10.177100	2.654153	2.152069	27.616844	19.967810	-43.538082	155.831390	-14.541854	-160.558334	2.701674	-62.832420	-6.782252	14.275789	2.776457	3.031885	9.966950	-32.868183	-25.135370	-1.778269	48.694244	-3.057732	-12.733292	7.281544	2.739071	1.005030	-18.151823	20.613895	2.488833	3.327635	8.714535	2.641676	-3.570517	4.876733	
14.969458	4.273213	5.434441	-8.415595	14.466361	16.428944	16.847286	-4.532496	-7.459860	-1.203691	-13.733819	67.250969	-38.744606	-9.399643	-20.765894	-15.450530	19.118814	1.266721	63.829163	-7.264182	-71.765015	7.255983	-56.558411	-11.740570	10.721611	2.675133	2.265972	29.952183	21.453814	-45.595428	151.079300	-14.202485	-168.737991	6.276239	-69.960205	-6.856022	12.752275	2.700082	2.713749	8.853456	-30.805557	-24.465548	-1.464492	43.311371	0.179075	-15.028679	-0.254934	1.306464	-1.117980	-23.424307	21.031355	2.387620	9.154811	6.865841	3.058533	-6.034239	4.989691	
15.117255	4.109932	5.039297	-5.953467	17.253664	16.477245	13.920409	-3.843420	-9.036839	-1.113466	-16.588770	71.784714	-42.610641	-9.410335	-23.802019	-15.400060	19.969027	2.841320	67.262886	-14.625894	-67.239540	9.964853	-58.865055	-15.195033	13.795839	2.813731	2.905031	31.133085	21.632647	-46.593864	144.899918	-16.569826	-175.921051	16.658421	-80.081703	1.624101	6.671188	2.480262	1.427820	7.123538	-28.145130	-24.093609	-1.101838	36.508167	4.442561	-17.705383	-6.250014	-0.317848	-3.876059	-28.580820	21.296246	2.354201	14.720443	6.068270	3.557317	-8.423660	5.137529	
15.267560	3.786849	4.541502	-4.040713	20.501320	16.462082	11.731712	-3.656590	-10.212052	-1.403818	-18.937565	74.465942	-45.997105	-9.439806	-26.802767	-15.449336	20.049934	4.196025	70.576347	-21.227003	-62.409031	12.555737	-60.386585	-18.339808	18.049574	3.061747	3.775648	31.822418	21.889399	-49.203388	136.802383	-18.750999	177.517441	145.307983	-85.298958	133.087921	-0.914902	2.398752	-0.196258	5.105142	-27.794388	-23.372746	-0.936029	31.787546	6.840239	-17.814501	-10.935205	-1.815324	-6.350719	-34.632393	21.643669	2.300962	20.605259	5.185735	4.754624	-10.916136	5.392313	
15.434848	3.419020	3.973876	-1.973121	23.701670	16.078789	9.533403	-2.922958	-10.577233	-1.711757	-20.973963	75.806473	-49.137131	-9.071485	-29.544086	-15.446466	20.519577	5.207348	74.261559	-27.632105	-56.271870	15.485748	-61.686466	-21.852324	19.788748	3.181747	4.126110	30.370218	24.052757	-46.307442	135.264206	-20.871689	177.207611	172.386658	-76.296967	165.718872	-10.444038	2.600578	-2.228338	2.249187	-28.975548	-22.568081	-0.856013	29.349531	8.112377	-16.228321	-14.461739	-2.670331	-9.613596	-40.173721	20.906277	2.357287	25.233919	5.208603	6.327188	-13.093763	5.764819	
15.620324	3.074108	3.392469	0.298929	26.770182	15.318960	7.398060	-1.806224	-10.341026	-2.086737	-22.587910	76.713631	-51.724110	-8.544287	-31.821859	-15.553636	20.503702	6.115349	77.966049	-33.570885	-49.522415	17.693563	-62.322479	-24.816833	6.978688	2.552769	1.479666	29.162418	25.537912	-45.085953	130.703293	-23.697910	178.249191	-179.152115	-67.205460	-174.962723	-18.677069	3.044294	-3.938591	-1.267799	-31.359243	-21.943558	-0.753060	28.986202	8.762201	-14.523615	-16.919918	-3.014631	-13.236228	-45.307587	20.353781	2.407338	29.150875	4.972006	8.161160	-14.677281	6.215542	
